<svg width="90" height="133" viewBox="0 0 90 133" fill="none" xmlns="http://www.w3.org/2000/svg">
<path d="M71.25 39.3464C70.646 39.3464 70.1562 39.8362 70.1562 40.4402V48.1041H68.4161C67.9872 44.3105 64.5643 41.583 60.7709 42.0118C57.5681 42.3738 55.0408 44.9013 54.6786 48.1041H31.875V16.3853H70.1562V19.8252C70.1562 20.4292 70.646 20.9189 71.25 20.9189C71.854 20.9189 72.3438 20.4292 72.3438 19.8252V15.2916C72.3438 14.6876 71.854 14.1978 71.25 14.1978H30.7812C30.1772 14.1978 29.6875 14.6876 29.6875 15.2916V16.3853H17.1619C14.4162 16.3889 12.1911 18.6138 12.1875 21.3597V22.9478C12.1875 23.5519 12.6772 24.0416 13.2812 24.0416H14.5533L13.7188 34.0658C11.5347 34.6343 10.0077 36.6028 10 38.8597V48.1041C10 48.7081 10.4897 49.1978 11.0938 49.1978H13.3086C13.6084 53.1091 17.0223 56.0368 20.9335 55.737C24.4281 55.4691 27.2047 52.6924 27.4727 49.1978C27.4825 49.1978 27.4902 49.2033 27.5 49.2033H29.6875C29.6875 49.8073 30.1772 50.2971 30.7812 50.2971H54.7781C55.5573 54.0356 59.2197 56.4346 62.9583 55.6555C65.6512 55.0942 67.7553 52.99 68.3166 50.2971H71.25C71.854 50.2971 72.3438 49.8073 72.3438 49.2033V40.4402C72.3438 39.836 71.854 39.3464 71.25 39.3464ZM20.3906 53.5728C17.6724 53.5728 15.4688 51.3692 15.4688 48.651C15.4688 45.9327 17.6724 43.7291 20.3906 43.7291C23.1089 43.7291 25.3125 45.9327 25.3125 48.651C25.3095 51.368 23.1076 53.5698 20.3906 53.5728ZM29.6875 47.0103H27.5C27.4359 47.017 27.3724 47.0298 27.3108 47.0486C26.4311 43.2269 22.62 40.842 18.7984 41.7216C16.1633 42.3281 14.1014 44.3786 13.4803 47.0103H12.1875V38.8597C12.1893 37.3214 13.436 36.0746 14.9744 36.0728H29.6875V47.0103ZM29.6875 33.8853H15.9281L16.7484 24.0416H29.6875V33.8853ZM29.6875 21.8541H14.375V21.3597C14.3768 19.8213 15.6235 18.5746 17.1619 18.5728H29.6875V21.8541ZM66.2673 49.1541C66.1267 51.6563 64.0545 53.6121 61.5484 53.6078H61.5473C59.2525 53.6028 57.2931 51.95 56.9011 49.6889C57.0928 49.354 57.0709 48.9378 56.8453 48.6247C56.9915 46.023 59.2192 44.0322 61.8211 44.1783C64.4228 44.3245 66.4136 46.5522 66.2673 49.1541Z" fill="#333333"/>
<path d="M70.1562 22.9478H54.8438C54.2397 22.9478 53.75 23.4376 53.75 24.0416C53.75 24.6456 54.2397 25.1353 54.8438 25.1353H70.1562C70.7603 25.1353 71.25 24.6456 71.25 24.0416C71.25 23.4376 70.7603 22.9478 70.1562 22.9478Z" fill="#333333"/>
<path d="M72.3438 34.9791H48.2812C47.6772 34.9791 47.1875 35.4688 47.1875 36.0728C47.1875 36.6769 47.6772 37.1666 48.2812 37.1666H72.3438C72.9478 37.1666 73.4375 36.6769 73.4375 36.0728C73.4375 35.4688 72.9478 34.9791 72.3438 34.9791Z" fill="#333333"/>
<path d="M70.1562 28.4166H58.125C57.521 28.4166 57.0312 28.9063 57.0312 29.5103C57.0312 30.1144 57.521 30.6041 58.125 30.6041H70.1562C70.7603 30.6041 71.25 30.1144 71.25 29.5103C71.25 28.9063 70.7603 28.4166 70.1562 28.4166Z" fill="#333333"/>
<path d="M74.5312 25.1353H76.7188C77.3228 25.1353 77.8125 24.6456 77.8125 24.0416C77.8125 23.4376 77.3228 22.9478 76.7188 22.9478H74.5312C73.9272 22.9478 73.4375 23.4376 73.4375 24.0416C73.4375 24.6456 73.9272 25.1353 74.5312 25.1353Z" fill="#333333"/>
<path d="M77.8125 34.9791H75.625C75.021 34.9791 74.5312 35.4688 74.5312 36.0728C74.5312 36.6769 75.021 37.1666 75.625 37.1666H77.8125C78.4165 37.1666 78.9062 36.6769 78.9062 36.0728C78.9062 35.4688 78.4165 34.9791 77.8125 34.9791Z" fill="#333333"/>
<path d="M78.9062 28.4166H74.5312C73.9272 28.4166 73.4375 28.9063 73.4375 29.5103C73.4375 30.1144 73.9272 30.6041 74.5312 30.6041H78.9062C79.5103 30.6041 80 30.1144 80 29.5103C80 28.9063 79.5103 28.4166 78.9062 28.4166Z" fill="#333333"/>
<path d="M5.6275 95.28C6.5555 95.28 7.34483 95.6107 7.9955 96.272C8.65683 96.9333 8.9875 97.7227 8.9875 98.64C8.9875 99.568 8.65683 100.363 7.9955 101.024C7.34483 101.675 6.5555 102 5.6275 102H1.4675V90.8H8.0275V91.856H2.5875V95.28H5.6275ZM5.6275 100.944C6.24617 100.944 6.77417 100.72 7.2115 100.272C7.64883 99.824 7.8675 99.28 7.8675 98.64C7.8675 98.0107 7.64883 97.472 7.2115 97.024C6.77417 96.5653 6.24617 96.336 5.6275 96.336H2.5875V100.944H5.6275ZM14.3629 93.808C15.5469 93.808 16.5015 94.2293 17.2269 95.072C17.9629 95.904 18.3309 96.8907 18.3309 98.032C18.3309 98.1493 18.3202 98.3147 18.2989 98.528H11.2749C11.3815 99.3387 11.7229 99.984 12.2989 100.464C12.8855 100.933 13.6055 101.168 14.4589 101.168C15.0669 101.168 15.5895 101.045 16.0269 100.8C16.4749 100.544 16.8109 100.213 17.0349 99.808L17.9629 100.352C17.6109 100.917 17.1309 101.365 16.5229 101.696C15.9149 102.027 15.2215 102.192 14.4429 102.192C13.1842 102.192 12.1602 101.797 11.3709 101.008C10.5815 100.219 10.1869 99.216 10.1869 98C10.1869 96.8053 10.5762 95.808 11.3549 95.008C12.1335 94.208 13.1362 93.808 14.3629 93.808ZM14.3629 94.832C13.5309 94.832 12.8322 95.0827 12.2669 95.584C11.7122 96.0747 11.3815 96.7147 11.2749 97.504H17.2429C17.1362 96.6613 16.8109 96.0053 16.2669 95.536C15.7229 95.0667 15.0882 94.832 14.3629 94.832ZM23.7386 102.192C22.5333 102.192 21.5306 101.792 20.7306 100.992C19.9306 100.181 19.5306 99.184 19.5306 98C19.5306 96.816 19.9306 95.824 20.7306 95.024C21.5306 94.2133 22.5333 93.808 23.7386 93.808C24.528 93.808 25.2373 94 25.8666 94.384C26.496 94.7573 26.9546 95.264 27.2426 95.904L26.3786 96.4C26.1653 95.92 25.8186 95.5413 25.3386 95.264C24.8693 94.976 24.336 94.832 23.7386 94.832C22.8533 94.832 22.1066 95.1413 21.4986 95.76C20.8906 96.368 20.5866 97.1147 20.5866 98C20.5866 98.8853 20.8906 99.6373 21.4986 100.256C22.1066 100.864 22.8533 101.168 23.7386 101.168C24.336 101.168 24.8693 101.029 25.3386 100.752C25.808 100.464 26.176 100.08 26.4426 99.6L27.3226 100.112C26.992 100.752 26.5066 101.259 25.8666 101.632C25.2266 102.005 24.5173 102.192 23.7386 102.192ZM35.5588 94V102H34.5028V95.024H29.8948V102H28.8388V94H35.5588ZM44.3519 94V102H43.2959V95.024H39.6799V98.592C39.6799 99.9253 39.4239 100.843 38.9119 101.344C38.4105 101.845 37.7172 102.064 36.8319 102V101.008C37.4399 101.072 37.8879 100.928 38.1759 100.576C38.4745 100.224 38.6239 99.5627 38.6239 98.592V94H44.3519ZM53.4688 94H54.5248V102H53.4688V100.432C52.7328 101.605 51.6554 102.192 50.2368 102.192C49.0954 102.192 48.1194 101.787 47.3088 100.976C46.5088 100.165 46.1088 99.1733 46.1088 98C46.1088 96.8267 46.5088 95.8347 47.3088 95.024C48.1194 94.2133 49.0954 93.808 50.2368 93.808C51.6554 93.808 52.7328 94.3947 53.4688 95.568V94ZM48.0768 100.256C48.6848 100.864 49.4314 101.168 50.3168 101.168C51.2021 101.168 51.9488 100.864 52.5568 100.256C53.1648 99.6373 53.4688 98.8853 53.4688 98C53.4688 97.1147 53.1648 96.368 52.5568 95.76C51.9488 95.1413 51.2021 94.832 50.3168 94.832C49.4314 94.832 48.6848 95.1413 48.0768 95.76C47.4688 96.368 47.1648 97.1147 47.1648 98C47.1648 98.8853 47.4688 99.6373 48.0768 100.256ZM62.5206 94V95.024H59.6886V102H58.6326V95.024H55.8006V94H62.5206ZM69.4715 94H70.5275V102H69.4715V98.512H64.8635V102H63.8075V94H64.8635V97.488H69.4715V94ZM79.6406 94H80.6966V102H79.6406V100.432C78.9046 101.605 77.8273 102.192 76.4086 102.192C75.2673 102.192 74.2913 101.787 73.4806 100.976C72.6806 100.165 72.2806 99.1733 72.2806 98C72.2806 96.8267 72.6806 95.8347 73.4806 95.024C74.2913 94.2133 75.2673 93.808 76.4086 93.808C77.8273 93.808 78.9046 94.3947 79.6406 95.568V94ZM74.2486 100.256C74.8566 100.864 75.6033 101.168 76.4886 101.168C77.374 101.168 78.1206 100.864 78.7286 100.256C79.3366 99.6373 79.6406 98.8853 79.6406 98C79.6406 97.1147 79.3366 96.368 78.7286 95.76C78.1206 95.1413 77.374 94.832 76.4886 94.832C75.6033 94.832 74.8566 95.1413 74.2486 95.76C73.6406 96.368 73.3366 97.1147 73.3366 98C73.3366 98.8853 73.6406 99.6373 74.2486 100.256ZM88.6925 94V102H87.6365V98.928H86.2605L83.7965 102H82.4525L84.9805 98.896C84.3405 98.8 83.8125 98.5333 83.3965 98.096C82.9805 97.6587 82.7725 97.12 82.7725 96.48C82.7725 95.7547 83.0285 95.1627 83.5405 94.704C84.0632 94.2347 84.6978 94 85.4445 94H88.6925ZM85.4445 97.936H87.6365V95.024H85.4445C84.9965 95.024 84.6125 95.1573 84.2925 95.424C83.9832 95.6907 83.8285 96.0427 83.8285 96.48C83.8285 96.9173 83.9832 97.2693 84.2925 97.536C84.6125 97.8027 84.9965 97.936 85.4445 97.936ZM17.9963 124.976H19.1163V128.144H18.0603V126H11.5323V128.144H10.4763V124.976H11.4523C11.9962 124.261 12.2682 123.253 12.2682 121.952V118H17.9963V124.976ZM12.7323 124.976H16.9403V119.024H13.3243V121.952C13.3243 123.179 13.1269 124.187 12.7323 124.976ZM27.1053 124.992C26.2946 125.792 25.3026 126.192 24.1293 126.192C22.9559 126.192 21.9586 125.792 21.1373 124.992C20.3266 124.181 19.9213 123.184 19.9213 122C19.9213 120.816 20.3266 119.824 21.1373 119.024C21.9586 118.213 22.9559 117.808 24.1293 117.808C25.3026 117.808 26.2946 118.213 27.1053 119.024C27.9266 119.824 28.3373 120.816 28.3373 122C28.3373 123.184 27.9266 124.181 27.1053 124.992ZM21.8893 124.256C22.4973 124.864 23.2439 125.168 24.1293 125.168C25.0146 125.168 25.7613 124.864 26.3693 124.256C26.9773 123.637 27.2812 122.885 27.2812 122C27.2812 121.115 26.9773 120.368 26.3693 119.76C25.7613 119.141 25.0146 118.832 24.1293 118.832C23.2439 118.832 22.4973 119.141 21.8893 119.76C21.2813 120.368 20.9773 121.115 20.9773 122C20.9773 122.885 21.2813 123.637 21.8893 124.256ZM33.8324 126.192C32.627 126.192 31.6244 125.792 30.8244 124.992C30.0244 124.181 29.6244 123.184 29.6244 122C29.6244 120.816 30.0244 119.824 30.8244 119.024C31.6244 118.213 32.627 117.808 33.8324 117.808C34.6217 117.808 35.331 118 35.9604 118.384C36.5897 118.757 37.0484 119.264 37.3364 119.904L36.4724 120.4C36.259 119.92 35.9124 119.541 35.4324 119.264C34.963 118.976 34.4297 118.832 33.8324 118.832C32.947 118.832 32.2004 119.141 31.5924 119.76C30.9844 120.368 30.6804 121.115 30.6804 122C30.6804 122.885 30.9844 123.637 31.5924 124.256C32.2004 124.864 32.947 125.168 33.8324 125.168C34.4297 125.168 34.963 125.029 35.4324 124.752C35.9017 124.464 36.2697 124.08 36.5364 123.6L37.4164 124.112C37.0857 124.752 36.6004 125.259 35.9604 125.632C35.3204 126.005 34.611 126.192 33.8324 126.192ZM44.5363 118V119.024H41.7043V126H40.6483V119.024H37.8163V118H44.5363ZM52.3906 118H53.4466V126H52.3906V124.432C51.6546 125.605 50.5773 126.192 49.1586 126.192C48.0173 126.192 47.0413 125.787 46.2306 124.976C45.4306 124.165 45.0306 123.173 45.0306 122C45.0306 120.827 45.4306 119.835 46.2306 119.024C47.0413 118.213 48.0173 117.808 49.1586 117.808C50.5773 117.808 51.6546 118.395 52.3906 119.568V118ZM46.9986 124.256C47.6066 124.864 48.3533 125.168 49.2386 125.168C50.124 125.168 50.8706 124.864 51.4786 124.256C52.0866 123.637 52.3906 122.885 52.3906 122C52.3906 121.115 52.0866 120.368 51.4786 119.76C50.8706 119.141 50.124 118.832 49.2386 118.832C48.3533 118.832 47.6066 119.141 46.9986 119.76C46.3906 120.368 46.0866 121.115 46.0866 122C46.0866 122.885 46.3906 123.637 46.9986 124.256ZM60.7705 121.888C61.6452 122.208 62.0825 122.832 62.0825 123.76C62.0825 124.411 61.8638 124.949 61.4265 125.376C60.9998 125.792 60.3812 126 59.5705 126H55.6825V118H59.2505C60.0292 118 60.6318 118.203 61.0585 118.608C61.4852 119.003 61.6985 119.515 61.6985 120.144C61.6985 120.944 61.3892 121.525 60.7705 121.888ZM59.2505 119.024H56.7385V121.456H59.2505C60.1785 121.456 60.6425 121.04 60.6425 120.208C60.6425 119.835 60.5198 119.547 60.2745 119.344C60.0398 119.131 59.6985 119.024 59.2505 119.024ZM59.5705 124.976C60.0398 124.976 60.3972 124.864 60.6425 124.64C60.8985 124.416 61.0265 124.101 61.0265 123.696C61.0265 123.323 60.8985 123.029 60.6425 122.816C60.3972 122.592 60.0398 122.48 59.5705 122.48H56.7385V124.976H59.5705ZM70.1465 126H68.7385L64.7385 122.144V126H63.6825V118H64.7385V121.536L68.5465 118H69.9865L65.8585 121.84L70.1465 126ZM77.6719 118H78.7279V126H77.6719V124.432C76.9359 125.605 75.8585 126.192 74.4399 126.192C73.2985 126.192 72.3225 125.787 71.5119 124.976C70.7119 124.165 70.3119 123.173 70.3119 122C70.3119 120.827 70.7119 119.835 71.5119 119.024C72.3225 118.213 73.2985 117.808 74.4399 117.808C75.8585 117.808 76.9359 118.395 77.6719 119.568V118ZM72.2799 124.256C72.8879 124.864 73.6345 125.168 74.5199 125.168C75.4052 125.168 76.1519 124.864 76.7599 124.256C77.3679 123.637 77.6719 122.885 77.6719 122C77.6719 121.115 77.3679 120.368 76.7599 119.76C76.1519 119.141 75.4052 118.832 74.5199 118.832C73.6345 118.832 72.8879 119.141 72.2799 119.76C71.6719 120.368 71.3679 121.115 71.3679 122C71.3679 122.885 71.6719 123.637 72.2799 124.256Z" fill="black"/>
</svg>
