<svg width="90" height="133" viewBox="0 0 90 133" fill="none" xmlns="http://www.w3.org/2000/svg">
<path d="M56.7436 40.9404L46.8998 26.7217C46.7992 26.5762 46.6648 26.4572 46.5081 26.3751C46.3514 26.2929 46.1771 26.25 46.0002 26.25C45.8233 26.25 45.649 26.2929 45.4923 26.3751C45.3356 26.4572 45.2012 26.5762 45.1006 26.7217L35.2568 40.9404C35.1602 41.08 35.0974 41.2401 35.0734 41.4081C35.0495 41.5761 35.065 41.7474 35.1188 41.9084L37.9201 50.3125H37.2502C36.9601 50.3125 36.6819 50.4277 36.4768 50.6329C36.2717 50.838 36.1564 51.1162 36.1564 51.4063V54.6875C36.1564 54.9776 36.2717 55.2558 36.4768 55.4609C36.6819 55.666 36.9601 55.7813 37.2502 55.7813H38.3439V67.8125C38.3439 68.1026 38.4592 68.3808 38.6643 68.5859C38.8694 68.791 39.1476 68.9063 39.4377 68.9063H52.5627C52.8528 68.9063 53.131 68.791 53.3361 68.5859C53.5412 68.3808 53.6564 68.1026 53.6564 67.8125V55.7813H54.7502C55.0403 55.7813 55.3185 55.666 55.5236 55.4609C55.7287 55.2558 55.8439 54.9776 55.8439 54.6875V51.4063C55.8439 51.1162 55.7287 50.838 55.5236 50.6329C55.3185 50.4277 55.0403 50.3125 54.7502 50.3125H54.0803L56.8816 41.9084C56.9354 41.7474 56.9509 41.5761 56.9269 41.4081C56.903 41.2401 56.8402 41.08 56.7436 40.9404ZM46.0002 39.375C46.2165 39.375 46.428 39.4392 46.6078 39.5593C46.7877 39.6795 46.9279 39.8503 47.0107 40.0502C47.0935 40.2501 47.1151 40.47 47.0729 40.6821C47.0307 40.8943 46.9266 41.0892 46.7736 41.2422C46.6206 41.3951 46.4257 41.4993 46.2136 41.5415C46.0014 41.5837 45.7815 41.562 45.5816 41.4793C45.3818 41.3965 45.211 41.2563 45.0908 41.0764C44.9706 40.8966 44.9064 40.6851 44.9064 40.4688C44.9068 40.1788 45.0222 39.9008 45.2272 39.6958C45.4323 39.4908 45.7102 39.3754 46.0002 39.375ZM51.4689 66.7188H40.5314V55.7813H51.4689V66.7188ZM53.6564 53.5938H38.3439V52.5H53.6564V53.5938ZM51.7738 50.3125H40.2266L37.3664 41.7361L44.9064 30.8451V37.1875C44.907 37.2489 44.9125 37.3102 44.9229 37.3707C44.1903 37.6253 43.5717 38.1312 43.1766 38.7986C42.7815 39.4659 42.6356 40.2517 42.7647 41.0164C42.8939 41.7811 43.2897 42.4753 43.8819 42.976C44.4742 43.4766 45.2247 43.7513 46.0002 43.7513C46.7757 43.7513 47.5262 43.4766 48.1185 42.976C48.7107 42.4753 49.1065 41.7811 49.2357 41.0164C49.3648 40.2517 49.2189 39.4659 48.8238 38.7986C48.4287 38.1312 47.8101 37.6253 47.0775 37.3707C47.0879 37.3102 47.0934 37.2489 47.0939 37.1875V30.8451L54.634 41.7361L51.7738 50.3125Z" fill="#333333"/>
<path d="M78.8125 13.125H74.4375C74.1474 13.125 73.8692 13.2402 73.6641 13.4454C73.459 13.6505 73.3438 13.9287 73.3438 14.2188V15.3221C73.2984 15.3161 73.2528 15.3129 73.207 15.3125H49.2812V14.2188C49.2812 13.9287 49.166 13.6505 48.9609 13.4454C48.7558 13.2402 48.4776 13.125 48.1875 13.125H47.0938V7.65625H48.1875C48.4776 7.65625 48.7558 7.54102 48.9609 7.3359C49.166 7.13078 49.2812 6.85258 49.2812 6.5625V2.1875C49.2812 1.89742 49.166 1.61922 48.9609 1.4141C48.7558 1.20898 48.4776 1.09375 48.1875 1.09375H43.8125C43.5224 1.09375 43.2442 1.20898 43.0391 1.4141C42.834 1.61922 42.7188 1.89742 42.7188 2.1875V6.5625C42.7188 6.85258 42.834 7.13078 43.0391 7.3359C43.2442 7.54102 43.5224 7.65625 43.8125 7.65625H44.9062V13.125H43.8125C43.5224 13.125 43.2442 13.2402 43.0391 13.4454C42.834 13.6505 42.7188 13.9287 42.7188 14.2188V15.3125H18.6562V14.2188C18.6562 13.9287 18.541 13.6505 18.3359 13.4454C18.1308 13.2402 17.8526 13.125 17.5625 13.125H13.1875C12.8974 13.125 12.6192 13.2402 12.4141 13.4454C12.209 13.6505 12.0938 13.9287 12.0938 14.2188V18.5938C12.0938 18.8838 12.209 19.162 12.4141 19.3671C12.6192 19.5723 12.8974 19.6875 13.1875 19.6875H17.5625C17.8526 19.6875 18.1308 19.5723 18.3359 19.3671C18.541 19.162 18.6562 18.8838 18.6562 18.5938V17.5H36.7387C35.2951 18.455 34.0048 19.6236 32.9119 20.9658C30.1078 24.366 28.5 28.6836 28.5 32.8125H27.4062C27.1162 32.8125 26.838 32.9277 26.6329 33.1329C26.4277 33.338 26.3125 33.6162 26.3125 33.9062V38.2812C26.3125 38.5713 26.4277 38.8495 26.6329 39.0546C26.838 39.2598 27.1162 39.375 27.4062 39.375H31.7812C32.0713 39.375 32.3495 39.2598 32.5546 39.0546C32.7598 38.8495 32.875 38.5713 32.875 38.2812V33.9062C32.875 33.6162 32.7598 33.338 32.5546 33.1329C32.3495 32.9277 32.0713 32.8125 31.7812 32.8125H30.6875C30.6875 24.7023 36.9273 18.3053 42.7188 17.5711V18.5938C42.7188 18.8838 42.834 19.162 43.0391 19.3671C43.2442 19.5723 43.5224 19.6875 43.8125 19.6875H48.1875C48.4776 19.6875 48.7558 19.5723 48.9609 19.3671C49.166 19.162 49.2812 18.8838 49.2812 18.5938V17.567C52.2426 17.9184 55.085 19.693 57.3791 22.6529C59.6117 25.5309 61.0295 29.2578 61.2742 32.8125H60.2188C59.9287 32.8125 59.6505 32.9277 59.4454 33.1329C59.2402 33.338 59.125 33.6162 59.125 33.9062V38.2812C59.125 38.5713 59.2402 38.8495 59.4454 39.0546C59.6505 39.2598 59.9287 39.375 60.2188 39.375H64.5938C64.8838 39.375 65.162 39.2598 65.3671 39.0546C65.5723 38.8495 65.6875 38.5713 65.6875 38.2812V33.9062C65.6875 33.6162 65.5723 33.338 65.3671 33.1329C65.162 32.9277 64.8838 32.8125 64.5938 32.8125H63.4658C63.2266 28.7506 61.6693 24.6135 59.1086 21.3117C57.9824 19.8333 56.6252 18.5462 55.0891 17.5H73.207C73.2528 17.4996 73.2984 17.4964 73.3438 17.4904V18.5938C73.3438 18.8838 73.459 19.162 73.6641 19.3671C73.8692 19.5723 74.1474 19.6875 74.4375 19.6875H78.8125C79.1026 19.6875 79.3808 19.5723 79.5859 19.3671C79.791 19.162 79.9062 18.8838 79.9062 18.5938V14.2188C79.9062 13.9287 79.791 13.6505 79.5859 13.4454C79.3808 13.2402 79.1026 13.125 78.8125 13.125ZM16.4688 17.5H14.2812V15.3125H16.4688V17.5ZM30.6875 37.1875H28.5V35H30.6875V37.1875ZM44.9062 3.28125H47.0938V5.46875H44.9062V3.28125ZM47.0938 17.5H44.9062V15.3125H47.0938V17.5ZM61.3125 35H63.5V37.1875H61.3125V35ZM77.7188 17.5H75.5312V15.3125H77.7188V17.5Z" fill="#333333"/>
<path d="M5.6275 95.28C6.5555 95.28 7.34483 95.6107 7.9955 96.272C8.65683 96.9333 8.9875 97.7227 8.9875 98.64C8.9875 99.568 8.65683 100.363 7.9955 101.024C7.34483 101.675 6.5555 102 5.6275 102H1.4675V90.8H8.0275V91.856H2.5875V95.28H5.6275ZM5.6275 100.944C6.24617 100.944 6.77417 100.72 7.2115 100.272C7.64883 99.824 7.8675 99.28 7.8675 98.64C7.8675 98.0107 7.64883 97.472 7.2115 97.024C6.77417 96.5653 6.24617 96.336 5.6275 96.336H2.5875V100.944H5.6275ZM14.3629 93.808C15.5469 93.808 16.5015 94.2293 17.2269 95.072C17.9629 95.904 18.3309 96.8907 18.3309 98.032C18.3309 98.1493 18.3202 98.3147 18.2989 98.528H11.2749C11.3815 99.3387 11.7229 99.984 12.2989 100.464C12.8855 100.933 13.6055 101.168 14.4589 101.168C15.0669 101.168 15.5895 101.045 16.0269 100.8C16.4749 100.544 16.8109 100.213 17.0349 99.808L17.9629 100.352C17.6109 100.917 17.1309 101.365 16.5229 101.696C15.9149 102.027 15.2215 102.192 14.4429 102.192C13.1842 102.192 12.1602 101.797 11.3709 101.008C10.5815 100.219 10.1869 99.216 10.1869 98C10.1869 96.8053 10.5762 95.808 11.3549 95.008C12.1335 94.208 13.1362 93.808 14.3629 93.808ZM14.3629 94.832C13.5309 94.832 12.8322 95.0827 12.2669 95.584C11.7122 96.0747 11.3815 96.7147 11.2749 97.504H17.2429C17.1362 96.6613 16.8109 96.0053 16.2669 95.536C15.7229 95.0667 15.0882 94.832 14.3629 94.832ZM23.7386 102.192C22.5333 102.192 21.5306 101.792 20.7306 100.992C19.9306 100.181 19.5306 99.184 19.5306 98C19.5306 96.816 19.9306 95.824 20.7306 95.024C21.5306 94.2133 22.5333 93.808 23.7386 93.808C24.528 93.808 25.2373 94 25.8666 94.384C26.496 94.7573 26.9546 95.264 27.2426 95.904L26.3786 96.4C26.1653 95.92 25.8186 95.5413 25.3386 95.264C24.8693 94.976 24.336 94.832 23.7386 94.832C22.8533 94.832 22.1066 95.1413 21.4986 95.76C20.8906 96.368 20.5866 97.1147 20.5866 98C20.5866 98.8853 20.8906 99.6373 21.4986 100.256C22.1066 100.864 22.8533 101.168 23.7386 101.168C24.336 101.168 24.8693 101.029 25.3386 100.752C25.808 100.464 26.176 100.08 26.4426 99.6L27.3226 100.112C26.992 100.752 26.5066 101.259 25.8666 101.632C25.2266 102.005 24.5173 102.192 23.7386 102.192ZM35.5588 94V102H34.5028V95.024H29.8948V102H28.8388V94H35.5588ZM44.3519 94V102H43.2959V95.024H39.6799V98.592C39.6799 99.9253 39.4239 100.843 38.9119 101.344C38.4105 101.845 37.7172 102.064 36.8319 102V101.008C37.4399 101.072 37.8879 100.928 38.1759 100.576C38.4745 100.224 38.6239 99.5627 38.6239 98.592V94H44.3519ZM53.4688 94H54.5248V102H53.4688V100.432C52.7328 101.605 51.6554 102.192 50.2368 102.192C49.0954 102.192 48.1194 101.787 47.3088 100.976C46.5088 100.165 46.1088 99.1733 46.1088 98C46.1088 96.8267 46.5088 95.8347 47.3088 95.024C48.1194 94.2133 49.0954 93.808 50.2368 93.808C51.6554 93.808 52.7328 94.3947 53.4688 95.568V94ZM48.0768 100.256C48.6848 100.864 49.4314 101.168 50.3168 101.168C51.2021 101.168 51.9488 100.864 52.5568 100.256C53.1648 99.6373 53.4688 98.8853 53.4688 98C53.4688 97.1147 53.1648 96.368 52.5568 95.76C51.9488 95.1413 51.2021 94.832 50.3168 94.832C49.4314 94.832 48.6848 95.1413 48.0768 95.76C47.4688 96.368 47.1648 97.1147 47.1648 98C47.1648 98.8853 47.4688 99.6373 48.0768 100.256ZM62.5206 94V95.024H59.6886V102H58.6326V95.024H55.8006V94H62.5206ZM69.4715 94H70.5275V102H69.4715V98.512H64.8635V102H63.8075V94H64.8635V97.488H69.4715V94ZM79.6406 94H80.6966V102H79.6406V100.432C78.9046 101.605 77.8273 102.192 76.4086 102.192C75.2673 102.192 74.2913 101.787 73.4806 100.976C72.6806 100.165 72.2806 99.1733 72.2806 98C72.2806 96.8267 72.6806 95.8347 73.4806 95.024C74.2913 94.2133 75.2673 93.808 76.4086 93.808C77.8273 93.808 78.9046 94.3947 79.6406 95.568V94ZM74.2486 100.256C74.8566 100.864 75.6033 101.168 76.4886 101.168C77.374 101.168 78.1206 100.864 78.7286 100.256C79.3366 99.6373 79.6406 98.8853 79.6406 98C79.6406 97.1147 79.3366 96.368 78.7286 95.76C78.1206 95.1413 77.374 94.832 76.4886 94.832C75.6033 94.832 74.8566 95.1413 74.2486 95.76C73.6406 96.368 73.3366 97.1147 73.3366 98C73.3366 98.8853 73.6406 99.6373 74.2486 100.256ZM88.6925 94V102H87.6365V98.928H86.2605L83.7965 102H82.4525L84.9805 98.896C84.3405 98.8 83.8125 98.5333 83.3965 98.096C82.9805 97.6587 82.7725 97.12 82.7725 96.48C82.7725 95.7547 83.0285 95.1627 83.5405 94.704C84.0632 94.2347 84.6978 94 85.4445 94H88.6925ZM85.4445 97.936H87.6365V95.024H85.4445C84.9965 95.024 84.6125 95.1573 84.2925 95.424C83.9832 95.6907 83.8285 96.0427 83.8285 96.48C83.8285 96.9173 83.9832 97.2693 84.2925 97.536C84.6125 97.8027 84.9965 97.936 85.4445 97.936ZM15.3634 118V126H14.3074V119.024H9.69944V126H8.64344V118H15.3634ZM21.8846 117.808C23.0259 117.808 23.9966 118.213 24.7966 119.024C25.6072 119.835 26.0126 120.827 26.0126 122C26.0126 123.173 25.6072 124.165 24.7966 124.976C23.9966 125.787 23.0259 126.192 21.8846 126.192C20.4659 126.192 19.3886 125.605 18.6526 124.432V129.2H17.5966V118H18.6526V119.568C19.3886 118.395 20.4659 117.808 21.8846 117.808ZM19.5646 124.256C20.1726 124.864 20.9192 125.168 21.8046 125.168C22.6899 125.168 23.4366 124.864 24.0446 124.256C24.6526 123.637 24.9566 122.885 24.9566 122C24.9566 121.115 24.6526 120.368 24.0446 119.76C23.4366 119.141 22.6899 118.832 21.8046 118.832C20.9192 118.832 20.1726 119.141 19.5646 119.76C18.9566 120.368 18.6526 121.115 18.6526 122C18.6526 122.885 18.9566 123.637 19.5646 124.256ZM33.5924 118H34.4884V126H33.4324V119.84L28.6644 126H27.7684V118H28.8244V124.16L33.5924 118ZM44.5616 118V126H43.5056V119.616L40.7056 124.16H40.5776L37.7776 119.616V126H36.7216V118H37.9376L40.6416 122.384L43.3456 118H44.5616ZM50.4957 117.808C51.6797 117.808 52.6344 118.229 53.3597 119.072C54.0957 119.904 54.4637 120.891 54.4637 122.032C54.4637 122.149 54.453 122.315 54.4317 122.528H47.4077C47.5144 123.339 47.8557 123.984 48.4317 124.464C49.0184 124.933 49.7384 125.168 50.5917 125.168C51.1997 125.168 51.7224 125.045 52.1597 124.8C52.6077 124.544 52.9437 124.213 53.1677 123.808L54.0957 124.352C53.7437 124.917 53.2637 125.365 52.6557 125.696C52.0477 126.027 51.3544 126.192 50.5757 126.192C49.317 126.192 48.293 125.797 47.5037 125.008C46.7144 124.219 46.3197 123.216 46.3197 122C46.3197 120.805 46.709 119.808 47.4877 119.008C48.2664 118.208 49.269 117.808 50.4957 117.808ZM50.4957 118.832C49.6637 118.832 48.965 119.083 48.3997 119.584C47.845 120.075 47.5144 120.715 47.4077 121.504H53.3757C53.269 120.661 52.9437 120.005 52.3997 119.536C51.8557 119.067 51.221 118.832 50.4957 118.832ZM60.4314 117.808C61.5728 117.808 62.5434 118.213 63.3434 119.024C64.1541 119.835 64.5594 120.827 64.5594 122C64.5594 123.173 64.1541 124.165 63.3434 124.976C62.5434 125.787 61.5728 126.192 60.4314 126.192C59.0128 126.192 57.9354 125.605 57.1994 124.432V129.2H56.1434V118H57.1994V119.568C57.9354 118.395 59.0128 117.808 60.4314 117.808ZM58.1114 124.256C58.7194 124.864 59.4661 125.168 60.3514 125.168C61.2368 125.168 61.9834 124.864 62.5914 124.256C63.1994 123.637 63.5034 122.885 63.5034 122C63.5034 121.115 63.1994 120.368 62.5914 119.76C61.9834 119.141 61.2368 118.832 60.3514 118.832C59.4661 118.832 58.7194 119.141 58.1114 119.76C57.5034 120.368 57.1994 121.115 57.1994 122C57.1994 122.885 57.5034 123.637 58.1114 124.256ZM72.7793 126H71.3713L67.3713 122.144V126H66.3153V118H67.3713V121.536L71.1793 118H72.6193L68.4913 121.84L72.7793 126ZM80.3047 118H81.3607V126H80.3047V124.432C79.5687 125.605 78.4914 126.192 77.0727 126.192C75.9314 126.192 74.9554 125.787 74.1447 124.976C73.3447 124.165 72.9447 123.173 72.9447 122C72.9447 120.827 73.3447 119.835 74.1447 119.024C74.9554 118.213 75.9314 117.808 77.0727 117.808C78.4914 117.808 79.5687 118.395 80.3047 119.568V118ZM74.9127 124.256C75.5207 124.864 76.2674 125.168 77.1527 125.168C78.038 125.168 78.7847 124.864 79.3927 124.256C80.0007 123.637 80.3047 122.885 80.3047 122C80.3047 121.115 80.0007 120.368 79.3927 119.76C78.7847 119.141 78.038 118.832 77.1527 118.832C76.2674 118.832 75.5207 119.141 74.9127 119.76C74.3047 120.368 74.0007 121.115 74.0007 122C74.0007 122.885 74.3047 123.637 74.9127 124.256Z" fill="black"/>
</svg>
