<svg width="127" height="133" viewBox="0 0 127 133" fill="none" xmlns="http://www.w3.org/2000/svg">
<path d="M79.3125 2.1875H70.5625V1.09375C70.5625 0.489727 70.0728 0 69.4688 0C68.8647 0 68.375 0.489727 68.375 1.09375V2.1875H59.625V1.09375C59.625 0.489727 59.1353 0 58.5312 0C57.9272 0 57.4375 0.489727 57.4375 1.09375V2.1875H48.6875V1.09375C48.6875 0.489727 48.1978 0 47.5938 0C46.9897 0 46.5 0.489727 46.5 1.09375V2.1875H37.75C37.146 2.1875 36.6562 2.67723 36.6562 3.28125V68.9062C36.6562 69.5103 37.146 70 37.75 70H79.3125C79.9165 70 80.4062 69.5103 80.4062 68.9062V3.28125C80.4062 2.67723 79.9165 2.1875 79.3125 2.1875ZM78.2188 67.8125H38.8438V4.375H46.5V7.65625C46.5 8.26027 46.9897 8.75 47.5938 8.75C48.1978 8.75 48.6875 8.26027 48.6875 7.65625V4.375H57.4375V7.65625C57.4375 8.26027 57.9272 8.75 58.5312 8.75C59.1353 8.75 59.625 8.26027 59.625 7.65625V4.375H68.375V7.65625C68.375 8.26027 68.8647 8.75 69.4688 8.75C70.0728 8.75 70.5625 8.26027 70.5625 7.65625V4.375H78.2188V67.8125Z" fill="#333333"/>
<path d="M54.1562 12.0312H43.2188C42.6147 12.0312 42.125 12.521 42.125 13.125V24.0625C42.125 24.6665 42.6147 25.1562 43.2188 25.1562H54.1562C54.7603 25.1562 55.25 24.6665 55.25 24.0625V13.125C55.25 12.521 54.7603 12.0312 54.1562 12.0312ZM53.0625 22.9688H44.3125V14.2188H53.0625V22.9688Z" fill="#333333"/>
<path d="M54.1562 27.3438H43.2188C42.6147 27.3438 42.125 27.8335 42.125 28.4375V39.375C42.125 39.979 42.6147 40.4688 43.2188 40.4688H54.1562C54.7603 40.4688 55.25 39.979 55.25 39.375V28.4375C55.25 27.8335 54.7603 27.3438 54.1562 27.3438ZM53.0625 38.2812H44.3125V29.5312H53.0625V38.2812Z" fill="#333333"/>
<path d="M54.1562 42.6562H43.2188C42.6147 42.6562 42.125 43.146 42.125 43.75V54.6875C42.125 55.2915 42.6147 55.7812 43.2188 55.7812H54.1562C54.7603 55.7812 55.25 55.2915 55.25 54.6875V43.75C55.25 43.146 54.7603 42.6562 54.1562 42.6562ZM53.0625 53.5938H44.3125V44.8438H53.0625V53.5938Z" fill="#333333"/>
<path d="M58.5312 14.2188C58.5312 14.8228 59.021 15.3125 59.625 15.3125H72.75C73.354 15.3125 73.8438 14.8228 73.8438 14.2188C73.8438 13.6147 73.354 13.125 72.75 13.125H59.625C59.021 13.125 58.5312 13.6147 58.5312 14.2188Z" fill="#333333"/>
<path d="M72.75 21.875H59.625C59.021 21.875 58.5312 22.3647 58.5312 22.9688C58.5312 23.5728 59.021 24.0625 59.625 24.0625H72.75C73.354 24.0625 73.8438 23.5728 73.8438 22.9688C73.8438 22.3647 73.354 21.875 72.75 21.875Z" fill="#333333"/>
<path d="M59.625 19.6875H65.0938C65.6978 19.6875 66.1875 19.1978 66.1875 18.5938C66.1875 17.9897 65.6978 17.5 65.0938 17.5H59.625C59.021 17.5 58.5312 17.9897 58.5312 18.5938C58.5312 19.1978 59.021 19.6875 59.625 19.6875Z" fill="#333333"/>
<path d="M70.5625 19.6875C71.1665 19.6875 71.6562 19.1978 71.6562 18.5938C71.6562 17.9897 71.1665 17.5 70.5625 17.5H68.375C67.771 17.5 67.2812 17.9897 67.2812 18.5938C67.2812 19.1978 67.771 19.6875 68.375 19.6875H70.5625Z" fill="#333333"/>
<path d="M72.75 28.4375H59.625C59.021 28.4375 58.5312 28.9272 58.5312 29.5312C58.5312 30.1353 59.021 30.625 59.625 30.625H72.75C73.354 30.625 73.8438 30.1353 73.8438 29.5312C73.8438 28.9272 73.354 28.4375 72.75 28.4375Z" fill="#333333"/>
<path d="M72.75 37.1875H59.625C59.021 37.1875 58.5312 37.6772 58.5312 38.2812C58.5312 38.8853 59.021 39.375 59.625 39.375H72.75C73.354 39.375 73.8438 38.8853 73.8438 38.2812C73.8438 37.6772 73.354 37.1875 72.75 37.1875Z" fill="#333333"/>
<path d="M59.625 35H65.0938C65.6978 35 66.1875 34.5103 66.1875 33.9062C66.1875 33.3022 65.6978 32.8125 65.0938 32.8125H59.625C59.021 32.8125 58.5312 33.3022 58.5312 33.9062C58.5312 34.5103 59.021 35 59.625 35Z" fill="#333333"/>
<path d="M70.5625 35C71.1665 35 71.6562 34.5103 71.6562 33.9062C71.6562 33.3022 71.1665 32.8125 70.5625 32.8125H68.375C67.771 32.8125 67.2812 33.3022 67.2812 33.9062C67.2812 34.5103 67.771 35 68.375 35H70.5625Z" fill="#333333"/>
<path d="M72.75 43.75H59.625C59.021 43.75 58.5312 44.2397 58.5312 44.8438C58.5312 45.4478 59.021 45.9375 59.625 45.9375H72.75C73.354 45.9375 73.8438 45.4478 73.8438 44.8438C73.8438 44.2397 73.354 43.75 72.75 43.75Z" fill="#333333"/>
<path d="M72.75 52.5H59.625C59.021 52.5 58.5312 52.9897 58.5312 53.5938C58.5312 54.1978 59.021 54.6875 59.625 54.6875H72.75C73.354 54.6875 73.8438 54.1978 73.8438 53.5938C73.8438 52.9897 73.354 52.5 72.75 52.5Z" fill="#333333"/>
<path d="M59.625 50.3125H65.0938C65.6978 50.3125 66.1875 49.8228 66.1875 49.2188C66.1875 48.6147 65.6978 48.125 65.0938 48.125H59.625C59.021 48.125 58.5312 48.6147 58.5312 49.2188C58.5312 49.8228 59.021 50.3125 59.625 50.3125Z" fill="#333333"/>
<path d="M70.5625 50.3125C71.1665 50.3125 71.6562 49.8228 71.6562 49.2188C71.6562 48.6147 71.1665 48.125 70.5625 48.125H68.375C67.771 48.125 67.2812 48.6147 67.2812 49.2188C67.2812 49.8228 67.771 50.3125 68.375 50.3125H70.5625Z" fill="#333333"/>
<path d="M87.5156 14.2188C85.4014 14.2188 83.6875 15.9327 83.6875 18.0469V50.3125C83.6924 50.3445 83.699 50.3764 83.7072 50.4077C83.7055 50.4357 83.7055 50.4638 83.7072 50.4919L84.8009 57.0544C84.8883 57.5802 85.3421 57.9664 85.875 57.9688H89.1562C89.691 57.9685 90.1471 57.5818 90.2347 57.0544L91.3284 50.4919C91.3301 50.4638 91.3301 50.4357 91.3284 50.4077C91.3351 50.3762 91.3403 50.3445 91.3438 50.3125V18.0469C91.3438 15.9327 89.6298 14.2188 87.5156 14.2188ZM88.2298 55.7812H86.8014L86.073 51.4062H88.9583L88.2298 55.7812ZM89.1562 49.2188H85.875V22.9688H89.1562V49.2188ZM89.1562 20.7812H85.875V18.0469C85.875 17.1408 86.6096 16.4062 87.5156 16.4062C88.4217 16.4062 89.1562 17.1408 89.1562 18.0469V20.7812Z" fill="#333333"/>
<path d="M8.5425 102V92.88L2.3025 102H1.3425V90.8H2.4625V99.92L8.7025 90.8H9.6625V102H8.5425ZM17.7215 94H18.7775V102H17.7215V98.512H13.1135V102H12.0575V94H13.1135V97.488H17.7215V94ZM27.7306 100.976H28.8506V104.144H27.7946V102H21.2666V104.144H20.2106V100.976H21.1866C21.7306 100.261 22.0026 99.2533 22.0026 97.952V94H27.7306V100.976ZM22.4666 100.976H26.6746V95.024H23.0586V97.952C23.0586 99.1787 22.8613 100.187 22.4666 100.976ZM36.2721 94H37.1681V102H36.1121V95.84L31.3441 102H30.4481V94H31.5041V100.16L36.2721 94ZM44.4893 97.888C45.3639 98.208 45.8013 98.832 45.8013 99.76C45.8013 100.411 45.5826 100.949 45.1453 101.376C44.7186 101.792 44.0999 102 43.2893 102H39.4013V94H42.9693C43.7479 94 44.3506 94.2027 44.7773 94.608C45.2039 95.0027 45.4173 95.5147 45.4173 96.144C45.4173 96.944 45.1079 97.5253 44.4893 97.888ZM42.9693 95.024H40.4573V97.456H42.9693C43.8973 97.456 44.3613 97.04 44.3613 96.208C44.3613 95.8347 44.2386 95.5467 43.9933 95.344C43.7586 95.1307 43.4173 95.024 42.9693 95.024ZM43.2893 100.976C43.7586 100.976 44.1159 100.864 44.3613 100.64C44.6173 100.416 44.7453 100.101 44.7453 99.696C44.7453 99.3227 44.6173 99.0293 44.3613 98.816C44.1159 98.592 43.7586 98.48 43.2893 98.48H40.4573V100.976H43.2893ZM53.2253 94H54.1213V102H53.0653V95.84L48.2973 102H47.4013V94H48.4573V100.16L53.2253 94ZM63.0744 100.976H64.1944V104.144H63.1384V102H56.6104V104.144H55.5544V100.976H56.5304C57.0744 100.261 57.3464 99.2533 57.3464 97.952V94H63.0744V100.976ZM57.8104 100.976H62.0184V95.024H58.4024V97.952C58.4024 99.1787 58.205 100.187 57.8104 100.976ZM71.2394 94H72.3594L68.9354 102.736C68.626 103.525 68.1834 104.144 67.6074 104.592C67.042 105.051 66.4074 105.253 65.7034 105.2V104.208C66.6634 104.315 67.394 103.76 67.8954 102.544L68.1034 102.048L64.5194 94H65.6394L68.6474 100.704L71.2394 94ZM80.2031 94H81.2591V102H80.2031V100.432C79.4671 101.605 78.3898 102.192 76.9711 102.192C75.8298 102.192 74.8538 101.787 74.0431 100.976C73.2431 100.165 72.8431 99.1733 72.8431 98C72.8431 96.8267 73.2431 95.8347 74.0431 95.024C74.8538 94.2133 75.8298 93.808 76.9711 93.808C78.3898 93.808 79.4671 94.3947 80.2031 95.568V94ZM74.8111 100.256C75.4191 100.864 76.1658 101.168 77.0511 101.168C77.9365 101.168 78.6831 100.864 79.2911 100.256C79.8991 99.6373 80.2031 98.8853 80.2031 98C80.2031 97.1147 79.8991 96.368 79.2911 95.76C78.6831 95.1413 77.9365 94.832 77.0511 94.832C76.1658 94.832 75.4191 95.1413 74.8111 95.76C74.2031 96.368 73.8991 97.1147 73.8991 98C73.8991 98.8853 74.2031 99.6373 74.8111 100.256ZM90.055 94V102H88.999V95.024H85.383V98.592C85.383 99.9253 85.127 100.843 84.615 101.344C84.1137 101.845 83.4203 102.064 82.535 102V101.008C83.143 101.072 83.591 100.928 83.879 100.576C84.1777 100.224 84.327 99.5627 84.327 98.592V94H90.055ZM95.5399 97.04C96.2865 97.04 96.9159 97.2747 97.4279 97.744C97.9505 98.2027 98.2119 98.7947 98.2119 99.52C98.2119 100.245 97.9505 100.843 97.4279 101.312C96.9159 101.771 96.2865 102 95.5399 102H92.2919V94H93.3479V97.04H95.5399ZM95.5399 100.976C95.9879 100.976 96.3665 100.843 96.6759 100.576C96.9959 100.309 97.1559 99.9573 97.1559 99.52C97.1559 99.0827 96.9959 98.7307 96.6759 98.464C96.3665 98.1973 95.9879 98.064 95.5399 98.064H93.3479V100.976H95.5399ZM105.472 94H106.528V102H105.472V98.512H100.864V102H99.8075V94H100.864V97.488H105.472V94ZM112.009 97.04C112.755 97.04 113.385 97.2747 113.897 97.744C114.419 98.2027 114.681 98.7947 114.681 99.52C114.681 100.245 114.419 100.843 113.897 101.312C113.385 101.771 112.755 102 112.009 102H108.761V94H109.817V97.04H112.009ZM115.801 94H116.857V102H115.801V94ZM112.009 100.976C112.457 100.976 112.835 100.843 113.145 100.576C113.465 100.309 113.625 99.9573 113.625 99.52C113.625 99.0827 113.465 98.7307 113.145 98.464C112.835 98.1973 112.457 98.064 112.009 98.064H109.817V100.976H112.009ZM120.384 92.72V91.792H124.544V92.72H120.384ZM124.928 94H125.824V102H124.768V95.84L120 102H119.104V94H120.16V100.16L124.928 94ZM44.5431 124.976H45.6631V128.144H44.6071V126H38.0791V128.144H37.0231V124.976H37.9991C38.5431 124.261 38.8151 123.253 38.8151 121.952V118H44.5431V124.976ZM39.2791 124.976H43.4871V119.024H39.8711V121.952C39.8711 123.179 39.6738 124.187 39.2791 124.976ZM53.0846 118H53.9806V126H52.9246V119.84L48.1566 126H47.2606V118H48.3166V124.16L53.0846 118ZM60.3418 121.888C61.2698 122.24 61.7338 122.88 61.7338 123.808C61.7338 124.469 61.4724 125.035 60.9498 125.504C60.4378 125.963 59.7018 126.192 58.7418 126.192C57.1311 126.192 56.0751 125.552 55.5738 124.272L56.4698 123.744C56.8004 124.693 57.5578 125.168 58.7418 125.168C59.3604 125.168 59.8351 125.035 60.1658 124.768C60.5071 124.501 60.6778 124.16 60.6778 123.744C60.6778 123.371 60.5391 123.067 60.2618 122.832C59.9844 122.597 59.6111 122.48 59.1418 122.48H57.9738V121.456H58.8218C59.2804 121.456 59.6378 121.344 59.8938 121.12C60.1604 120.885 60.2938 120.565 60.2938 120.16C60.2938 119.776 60.1391 119.461 59.8298 119.216C59.5204 118.96 59.1044 118.832 58.5818 118.832C57.5791 118.832 56.9124 119.232 56.5818 120.032L55.7018 119.52C56.2351 118.379 57.1951 117.808 58.5818 117.808C59.4244 117.808 60.0964 118.032 60.5978 118.48C61.0991 118.917 61.3498 119.456 61.3498 120.096C61.3498 120.917 61.0138 121.515 60.3418 121.888ZM70.2188 118H71.2748V126H70.2188V124.432C69.4828 125.605 68.4054 126.192 66.9868 126.192C65.8454 126.192 64.8694 125.787 64.0588 124.976C63.2588 124.165 62.8588 123.173 62.8588 122C62.8588 120.827 63.2588 119.835 64.0588 119.024C64.8694 118.213 65.8454 117.808 66.9868 117.808C68.4054 117.808 69.4828 118.395 70.2188 119.568V118ZM64.8268 124.256C65.4348 124.864 66.1814 125.168 67.0668 125.168C67.9521 125.168 68.6988 124.864 69.3068 124.256C69.9148 123.637 70.2188 122.885 70.2188 122C70.2188 121.115 69.9148 120.368 69.3068 119.76C68.6988 119.141 67.9521 118.832 67.0668 118.832C66.1814 118.832 65.4348 119.141 64.8268 119.76C64.2188 120.368 63.9148 121.115 63.9148 122C63.9148 122.885 64.2188 123.637 64.8268 124.256ZM74.7906 116.72V115.792H78.9506V116.72H74.7906ZM79.3346 118H80.2306V126H79.1746V119.84L74.4066 126H73.5106V118H74.5666V124.16L79.3346 118ZM88.1278 118H89.1838V126H88.1278V122.512H83.5198V126H82.4638V118H83.5198V121.488H88.1278V118Z" fill="black"/>
</svg>
