<svg width="216" height="49" viewBox="0 0 216 49" fill="none" xmlns="http://www.w3.org/2000/svg">
<path d="M44.5497 41.4793C39.5199 46.4931 33.3644 49 26.0832 49C18.8019 49 12.6224 46.4931 7.54471 41.4793C2.5149 36.4178 0 30.258 0 23C0 15.742 2.5149 9.60606 7.54471 4.59229C12.6224 -0.469238 18.8019 -3 26.0832 -3C33.3644 -3 39.5199 -0.469238 44.5497 4.59229C49.6275 9.60606 52.1663 15.742 52.1663 23C52.1663 30.258 49.6275 36.4178 44.5497 41.4793ZM13.3649 35.8926C16.8139 39.2828 21.0533 40.978 26.0832 40.978C31.113 40.978 35.3284 39.2828 38.7295 35.8926C42.1785 32.4545 43.9031 28.157 43.9031 23C43.9031 17.843 42.1785 13.5693 38.7295 10.1791C35.3284 6.74105 31.113 5.02204 26.0832 5.02204C21.0533 5.02204 16.8139 6.74105 13.3649 10.1791C9.96381 13.5693 8.26326 17.843 8.26326 23C8.26326 28.157 9.96381 32.4545 13.3649 35.8926Z" fill="white"/>
<path d="M80.2047 49C72.3965 49 67.0074 45.944 64.0375 39.832L71.151 35.6777C72.7797 39.2112 75.8216 40.978 80.2766 40.978C83.1507 40.978 85.3543 40.2856 86.8872 38.9008C88.468 37.4683 89.2584 35.4628 89.2584 32.8843V-2.06887H97.5216V32.8843C97.5216 38.0413 95.8929 42.0285 92.6355 44.8457C89.3781 47.6152 85.2345 49 80.2047 49Z" fill="white"/>
<path d="M128.664 49C120.856 49 115.467 45.944 112.497 39.832L119.611 35.6777C121.239 39.2112 124.281 40.978 128.736 40.978C131.61 40.978 133.814 40.2856 135.347 38.9008C136.928 37.4683 137.718 35.4628 137.718 32.8843V-2.06887H145.981V32.8843C145.981 38.0413 144.353 42.0285 141.095 44.8457C137.838 47.6152 133.694 49 128.664 49Z" fill="white"/>
<path d="M208.383 41.4793C203.354 46.4931 197.198 49 189.917 49C182.636 49 176.456 46.4931 171.378 41.4793C166.349 36.4178 163.834 30.258 163.834 23C163.834 15.742 166.349 9.60606 171.378 4.59229C176.456 -0.469238 182.636 -3 189.917 -3C197.198 -3 203.354 -0.469238 208.383 4.59229C213.461 9.60606 216 15.742 216 23C216 30.258 213.461 36.4178 208.383 41.4793ZM177.199 35.8926C180.648 39.2828 184.887 40.978 189.917 40.978C194.947 40.978 199.162 39.2828 202.563 35.8926C206.012 32.4545 207.737 28.157 207.737 23C207.737 17.843 206.012 13.5693 202.563 10.1791C199.162 6.74105 194.947 5.02204 189.917 5.02204C184.887 5.02204 180.648 6.74105 177.199 10.1791C173.798 13.5693 172.097 17.843 172.097 23C172.097 28.157 173.798 32.4545 177.199 35.8926Z" fill="white"/>
<path d="M36.1308 20.933L36.1248 20.8808C36.1137 20.8155 36.0939 20.7524 36.0658 20.6938L33.1246 15.4231C33.1246 15.4231 32.7495 14.9064 32.6604 14.9064H20.1267L16.3574 20.515L16.3128 20.5666L16.3068 20.5909C16.2749 20.6479 16.2488 20.7085 16.2288 20.7718L16.2135 20.8219C16.17 20.9824 16.1721 21.1538 16.2195 21.3129L16.2371 21.3692C16.2608 21.4359 16.2901 21.4968 16.3244 21.5511L25.4373 34.4018L25.4559 34.4313C25.5027 34.4984 25.5598 34.5579 25.6295 34.6121L25.6824 34.6488C25.7344 34.685 25.7887 34.7139 25.8676 34.746L25.9191 34.7651C26.0083 34.7904 26.0858 34.8023 26.1615 34.8023C26.238 34.8023 26.3128 34.7909 26.4135 34.762L26.4753 34.7377C26.5356 34.7139 26.5899 34.6845 26.6554 34.6395L26.6962 34.6111C26.7663 34.5558 26.8225 34.4959 26.8536 34.4488L35.9781 21.5847C36.0588 21.4649 36.1114 21.3246 36.1313 21.1764L36.1382 21.1098L36.1419 21.0571L36.1308 20.933ZM31.238 20.5909L32.5369 17.9745L33.8348 20.5909H31.238ZM30.4591 22.1413H33.5405L28.4045 29.3839L30.4591 22.1413ZM29.6969 19.8065L27.821 16.9735H31.103L29.6969 19.8065ZM23.6882 22.1413H28.6361L26.1615 30.8629L23.6882 22.1413ZM24.1788 20.5909L26.1615 17.5957L28.1441 20.5909H24.1788ZM22.7825 19.5718L21.9228 16.9735H24.5024L22.7825 19.5718ZM23.9193 29.3844L18.7829 22.1413H21.8647L23.9193 29.3844ZM20.4354 17.9926L21.2956 20.5909H18.7156L20.4354 17.9926Z" fill="white"/>
<path d="M199.799 20.933L199.793 20.8808C199.782 20.8155 199.762 20.7524 199.734 20.6938L196.793 15.4231C196.793 15.4231 196.418 14.9064 196.329 14.9064H183.795L180.026 20.515L179.981 20.5666L179.975 20.5909C179.943 20.6479 179.917 20.7085 179.897 20.7718L179.882 20.8219C179.838 20.9824 179.841 21.1538 179.888 21.3129L179.906 21.3692C179.929 21.4359 179.958 21.4968 179.993 21.5511L189.106 34.4018L189.124 34.4313C189.171 34.4984 189.228 34.5579 189.298 34.6121L189.351 34.6488C189.403 34.685 189.457 34.7139 189.536 34.746L189.588 34.7651C189.677 34.7904 189.754 34.8023 189.83 34.8023C189.906 34.8023 189.981 34.7909 190.082 34.762L190.144 34.7377C190.204 34.7139 190.258 34.6845 190.324 34.6395L190.365 34.6111C190.435 34.5558 190.491 34.4959 190.522 34.4488L199.646 21.5847C199.727 21.4649 199.78 21.3246 199.8 21.1764L199.807 21.1098L199.81 21.0571L199.799 20.933ZM194.906 20.5909L196.205 17.9745L197.503 20.5909H194.906ZM194.127 22.1413H197.209L192.073 29.3839L194.127 22.1413ZM193.365 19.8065L191.489 16.9735H194.771L193.365 19.8065ZM187.357 22.1413H192.305L189.83 30.8629L187.357 22.1413ZM187.847 20.5909L189.83 17.5957L191.812 20.5909H187.847ZM186.451 19.5718L185.591 16.9735H188.171L186.451 19.5718ZM187.588 29.3844L182.451 22.1413H185.533L187.588 29.3844ZM184.104 17.9926L184.964 20.5909H182.384L184.104 17.9926Z" fill="white"/>
</svg>
