<svg width="245" height="105" viewBox="0 0 245 105" fill="none" xmlns="http://www.w3.org/2000/svg">
<path d="M37.27 19V17.884C38.146 18.004 38.8 17.734 39.232 17.074C39.676 16.402 39.898 15.178 39.898 13.402V6.4H48.07V19H46.81V7.588H41.158V13.438C41.158 14.578 41.068 15.532 40.888 16.3C40.708 17.068 40.438 17.656 40.078 18.064C39.73 18.46 39.328 18.73 38.872 18.874C38.428 19.006 37.894 19.048 37.27 19ZM57.3276 10H58.3356V19H57.1476V12.07L51.7836 19H50.7756V10H51.9636V16.93L57.3276 10ZM66.6799 10H67.8679V19H66.6799V15.58C65.9839 15.94 65.1259 16.12 64.1059 16.12C62.9299 16.12 62.0299 15.85 61.4059 15.31C60.7939 14.758 60.4879 13.948 60.4879 12.88V10H61.6759V12.88C61.6759 13.636 61.8739 14.182 62.2699 14.518C62.6659 14.842 63.2659 15.004 64.0699 15.004C65.0059 15.004 65.8759 14.83 66.6799 14.482V10ZM76.7648 10H77.9528V19H76.7648V15.076H71.5808V19H70.3928V10H71.5808V13.924H76.7648V10ZM84.1191 13.42C84.9591 13.42 85.6671 13.684 86.2431 14.212C86.8311 14.728 87.1251 15.394 87.1251 16.21C87.1251 17.026 86.8311 17.698 86.2431 18.226C85.6671 18.742 84.9591 19 84.1191 19H80.4651V10H81.6531V13.42H84.1191ZM88.3851 10H89.5731V19H88.3851V10ZM84.1191 17.848C84.6231 17.848 85.0491 17.698 85.3971 17.398C85.7571 17.098 85.9371 16.702 85.9371 16.21C85.9371 15.718 85.7571 15.322 85.3971 15.022C85.0491 14.722 84.6231 14.572 84.1191 14.572H81.6531V17.848H84.1191ZM93.5418 8.56V7.516H98.2218V8.56H93.5418ZM98.6538 10H99.6618V19H98.4738V12.07L93.1098 19H92.1018V10H93.2898V16.93L98.6538 10ZM115.494 10V19H114.306V11.818L111.156 16.93H111.012L107.862 11.818V19H106.674V10H108.042L111.084 14.932L114.126 10H115.494ZM122.17 9.784C123.502 9.784 124.576 10.258 125.392 11.206C126.22 12.142 126.634 13.252 126.634 14.536C126.634 14.668 126.622 14.854 126.598 15.094H118.696C118.816 16.006 119.2 16.732 119.848 17.272C120.508 17.8 121.318 18.064 122.278 18.064C122.962 18.064 123.55 17.926 124.042 17.65C124.546 17.362 124.924 16.99 125.176 16.534L126.22 17.146C125.824 17.782 125.284 18.286 124.6 18.658C123.916 19.03 123.136 19.216 122.26 19.216C120.844 19.216 119.692 18.772 118.804 17.884C117.916 16.996 117.472 15.868 117.472 14.5C117.472 13.156 117.91 12.034 118.786 11.134C119.662 10.234 120.79 9.784 122.17 9.784ZM122.17 10.936C121.234 10.936 120.448 11.218 119.812 11.782C119.188 12.334 118.816 13.054 118.696 13.942H125.41C125.29 12.994 124.924 12.256 124.312 11.728C123.7 11.2 122.986 10.936 122.17 10.936ZM134.896 10H136.084V19H134.896V15.076H129.712V19H128.524V10H129.712V13.924H134.896V10ZM142.754 9.784C144.086 9.784 145.16 10.258 145.976 11.206C146.804 12.142 147.218 13.252 147.218 14.536C147.218 14.668 147.206 14.854 147.182 15.094H139.28C139.4 16.006 139.784 16.732 140.432 17.272C141.092 17.8 141.902 18.064 142.862 18.064C143.546 18.064 144.134 17.926 144.626 17.65C145.13 17.362 145.508 16.99 145.76 16.534L146.804 17.146C146.408 17.782 145.868 18.286 145.184 18.658C144.5 19.03 143.72 19.216 142.844 19.216C141.428 19.216 140.276 18.772 139.388 17.884C138.5 16.996 138.056 15.868 138.056 14.5C138.056 13.156 138.494 12.034 139.37 11.134C140.246 10.234 141.374 9.784 142.754 9.784ZM142.754 10.936C141.818 10.936 141.032 11.218 140.396 11.782C139.772 12.334 139.4 13.054 139.28 13.942H145.994C145.874 12.994 145.508 12.256 144.896 11.728C144.284 11.2 143.57 10.936 142.754 10.936ZM156.316 17.848H157.576V21.412H156.388V19H149.044V21.412H147.856V17.848H148.954C149.566 17.044 149.872 15.91 149.872 14.446V10H156.316V17.848ZM150.394 17.848H155.128V11.152H151.06V14.446C151.06 15.826 150.838 16.96 150.394 17.848ZM169.885 19H168.445L164.773 14.662V19H163.585V14.662L159.913 19H158.473L162.505 14.32L158.653 10H160.093L163.585 13.996V10H164.773V13.996L168.265 10H169.705L165.853 14.32L169.885 19ZM174.939 9.784C176.271 9.784 177.345 10.258 178.161 11.206C178.989 12.142 179.403 13.252 179.403 14.536C179.403 14.668 179.391 14.854 179.367 15.094H171.465C171.585 16.006 171.969 16.732 172.617 17.272C173.277 17.8 174.087 18.064 175.047 18.064C175.731 18.064 176.319 17.926 176.811 17.65C177.315 17.362 177.693 16.99 177.945 16.534L178.989 17.146C178.593 17.782 178.053 18.286 177.369 18.658C176.685 19.03 175.905 19.216 175.029 19.216C173.613 19.216 172.461 18.772 171.573 17.884C170.685 16.996 170.241 15.868 170.241 14.5C170.241 13.156 170.679 12.034 171.555 11.134C172.431 10.234 173.559 9.784 174.939 9.784ZM174.939 10.936C174.003 10.936 173.217 11.218 172.581 11.782C171.957 12.334 171.585 13.054 171.465 13.942H178.179C178.059 12.994 177.693 12.256 177.081 11.728C176.469 11.2 175.755 10.936 174.939 10.936ZM186.117 9.784C187.401 9.784 188.493 10.24 189.393 11.152C190.305 12.064 190.761 13.18 190.761 14.5C190.761 15.82 190.305 16.936 189.393 17.848C188.493 18.76 187.401 19.216 186.117 19.216C184.521 19.216 183.309 18.556 182.481 17.236V22.6H181.293V10H182.481V11.764C183.309 10.444 184.521 9.784 186.117 9.784ZM183.507 17.038C184.191 17.722 185.031 18.064 186.027 18.064C187.023 18.064 187.863 17.722 188.547 17.038C189.231 16.342 189.573 15.496 189.573 14.5C189.573 13.504 189.231 12.664 188.547 11.98C187.863 11.284 187.023 10.936 186.027 10.936C185.031 10.936 184.191 11.284 183.507 11.98C182.823 12.664 182.481 13.504 182.481 14.5C182.481 15.496 182.823 16.342 183.507 17.038Z" fill="white"/>
<path d="M47.44 57.812H48.79V61.412H47.53V59H38.53V61.412H37.27V57.812H38.296C39.124 56.84 39.538 55.34 39.538 53.312V46.4H47.44V57.812ZM39.79 57.812H46.18V47.588H40.798V53.348C40.798 55.34 40.462 56.828 39.79 57.812ZM57.8782 57.866C56.9662 58.766 55.8502 59.216 54.5302 59.216C53.2102 59.216 52.0882 58.766 51.1642 57.866C50.2522 56.954 49.7962 55.832 49.7962 54.5C49.7962 53.168 50.2522 52.052 51.1642 51.152C52.0882 50.24 53.2102 49.784 54.5302 49.784C55.8502 49.784 56.9662 50.24 57.8782 51.152C58.8022 52.052 59.2642 53.168 59.2642 54.5C59.2642 55.832 58.8022 56.954 57.8782 57.866ZM52.0102 57.038C52.6942 57.722 53.5342 58.064 54.5302 58.064C55.5262 58.064 56.3662 57.722 57.0502 57.038C57.7342 56.342 58.0762 55.496 58.0762 54.5C58.0762 53.504 57.7342 52.664 57.0502 51.98C56.3662 51.284 55.5262 50.936 54.5302 50.936C53.5342 50.936 52.6942 51.284 52.0102 51.98C51.3262 52.664 50.9842 53.504 50.9842 54.5C50.9842 55.496 51.3262 56.342 52.0102 57.038ZM65.4462 59.216C64.0902 59.216 62.9622 58.766 62.0622 57.866C61.1622 56.954 60.7122 55.832 60.7122 54.5C60.7122 53.168 61.1622 52.052 62.0622 51.152C62.9622 50.24 64.0902 49.784 65.4462 49.784C66.3342 49.784 67.1322 50 67.8402 50.432C68.5482 50.852 69.0642 51.422 69.3882 52.142L68.4162 52.7C68.1762 52.16 67.7862 51.734 67.2462 51.422C66.7182 51.098 66.1182 50.936 65.4462 50.936C64.4502 50.936 63.6102 51.284 62.9262 51.98C62.2422 52.664 61.9002 53.504 61.9002 54.5C61.9002 55.496 62.2422 56.342 62.9262 57.038C63.6102 57.722 64.4502 58.064 65.4462 58.064C66.1182 58.064 66.7182 57.908 67.2462 57.596C67.7742 57.272 68.1882 56.84 68.4882 56.3L69.4782 56.876C69.1062 57.596 68.5602 58.166 67.8402 58.586C67.1202 59.006 66.3222 59.216 65.4462 59.216ZM77.488 50V51.152H74.302V59H73.114V51.152H69.928V50H77.488ZM86.3242 50H87.5122V59H86.3242V57.236C85.4962 58.556 84.2842 59.216 82.6882 59.216C81.4042 59.216 80.3062 58.76 79.3942 57.848C78.4942 56.936 78.0442 55.82 78.0442 54.5C78.0442 53.18 78.4942 52.064 79.3942 51.152C80.3062 50.24 81.4042 49.784 82.6882 49.784C84.2842 49.784 85.4962 50.444 86.3242 51.764V50ZM80.2582 57.038C80.9422 57.722 81.7822 58.064 82.7782 58.064C83.7742 58.064 84.6142 57.722 85.2982 57.038C85.9822 56.342 86.3242 55.496 86.3242 54.5C86.3242 53.504 85.9822 52.664 85.2982 51.98C84.6142 51.284 83.7742 50.936 82.7782 50.936C81.7822 50.936 80.9422 51.284 80.2582 51.98C79.5742 52.664 79.2322 53.504 79.2322 54.5C79.2322 55.496 79.5742 56.342 80.2582 57.038ZM95.7516 54.374C96.7356 54.734 97.2276 55.436 97.2276 56.48C97.2276 57.212 96.9816 57.818 96.4896 58.298C96.0096 58.766 95.3136 59 94.4016 59H90.0276V50H94.0416C94.9176 50 95.5956 50.228 96.0756 50.684C96.5556 51.128 96.7956 51.704 96.7956 52.412C96.7956 53.312 96.4476 53.966 95.7516 54.374ZM94.0416 51.152H91.2156V53.888H94.0416C95.0856 53.888 95.6076 53.42 95.6076 52.484C95.6076 52.064 95.4696 51.74 95.1936 51.512C94.9296 51.272 94.5456 51.152 94.0416 51.152ZM94.4016 57.848C94.9296 57.848 95.3316 57.722 95.6076 57.47C95.8956 57.218 96.0396 56.864 96.0396 56.408C96.0396 55.988 95.8956 55.658 95.6076 55.418C95.3316 55.166 94.9296 55.04 94.4016 55.04H91.2156V57.848H94.4016ZM106.3 59H104.716L100.216 54.662V59H99.0276V50H100.216V53.978L104.5 50H106.12L101.476 54.32L106.3 59ZM114.766 50H115.954V59H114.766V57.236C113.938 58.556 112.726 59.216 111.13 59.216C109.846 59.216 108.748 58.76 107.836 57.848C106.936 56.936 106.486 55.82 106.486 54.5C106.486 53.18 106.936 52.064 107.836 51.152C108.748 50.24 109.846 49.784 111.13 49.784C112.726 49.784 113.938 50.444 114.766 51.764V50ZM108.7 57.038C109.384 57.722 110.224 58.064 111.22 58.064C112.216 58.064 113.056 57.722 113.74 57.038C114.424 56.342 114.766 55.496 114.766 54.5C114.766 53.504 114.424 52.664 113.74 51.98C113.056 51.284 112.216 50.936 111.22 50.936C110.224 50.936 109.384 51.284 108.7 51.98C108.016 52.664 107.674 53.504 107.674 54.5C107.674 55.496 108.016 56.342 108.7 57.038ZM129.521 50H130.529V59H129.341V52.07L123.977 59H122.969V50H124.157V56.93L129.521 50ZM145.083 57.866C144.171 58.766 143.055 59.216 141.735 59.216C140.415 59.216 139.293 58.766 138.369 57.866C137.457 56.954 137.001 55.832 137.001 54.5C137.001 53.168 137.457 52.052 138.369 51.152C139.293 50.24 140.415 49.784 141.735 49.784C143.055 49.784 144.171 50.24 145.083 51.152C146.007 52.052 146.469 53.168 146.469 54.5C146.469 55.832 146.007 56.954 145.083 57.866ZM139.215 57.038C139.899 57.722 140.739 58.064 141.735 58.064C142.731 58.064 143.571 57.722 144.255 57.038C144.939 56.342 145.281 55.496 145.281 54.5C145.281 53.504 144.939 52.664 144.255 51.98C143.571 51.284 142.731 50.936 141.735 50.936C140.739 50.936 139.899 51.284 139.215 51.98C138.531 52.664 138.189 53.504 138.189 54.5C138.189 55.496 138.531 56.342 139.215 57.038ZM157.241 51.296C158.105 52.172 158.537 53.24 158.537 54.5C158.537 55.76 158.105 56.828 157.241 57.704C156.377 58.58 155.237 59.078 153.821 59.198V62.6H152.633V59.198C151.217 59.078 150.077 58.58 149.213 57.704C148.349 56.828 147.917 55.76 147.917 54.5C147.917 53.24 148.349 52.172 149.213 51.296C150.077 50.42 151.217 49.922 152.633 49.802V46.4H153.821V49.802C155.237 49.922 156.377 50.42 157.241 51.296ZM150.059 52.124C149.423 52.772 149.105 53.564 149.105 54.5C149.105 55.436 149.423 56.234 150.059 56.894C150.695 57.542 151.553 57.92 152.633 58.028V50.972C151.553 51.08 150.695 51.464 150.059 52.124ZM153.821 58.028C154.901 57.92 155.759 57.542 156.395 56.894C157.031 56.234 157.349 55.436 157.349 54.5C157.349 53.564 157.031 52.772 156.395 52.124C155.759 51.464 154.901 51.08 153.821 50.972V58.028ZM168.058 57.866C167.146 58.766 166.03 59.216 164.71 59.216C163.39 59.216 162.268 58.766 161.344 57.866C160.432 56.954 159.976 55.832 159.976 54.5C159.976 53.168 160.432 52.052 161.344 51.152C162.268 50.24 163.39 49.784 164.71 49.784C166.03 49.784 167.146 50.24 168.058 51.152C168.982 52.052 169.444 53.168 169.444 54.5C169.444 55.832 168.982 56.954 168.058 57.866ZM162.19 57.038C162.874 57.722 163.714 58.064 164.71 58.064C165.706 58.064 166.546 57.722 167.23 57.038C167.914 56.342 168.256 55.496 168.256 54.5C168.256 53.504 167.914 52.664 167.23 51.98C166.546 51.284 165.706 50.936 164.71 50.936C163.714 50.936 162.874 51.284 162.19 51.98C161.506 52.664 161.164 53.504 161.164 54.5C161.164 55.496 161.506 56.342 162.19 57.038ZM176.256 49.784C177.54 49.784 178.632 50.24 179.532 51.152C180.444 52.064 180.9 53.18 180.9 54.5C180.9 55.82 180.444 56.936 179.532 57.848C178.632 58.76 177.54 59.216 176.256 59.216C174.66 59.216 173.448 58.556 172.62 57.236V62.6H171.432V50H172.62V51.764C173.448 50.444 174.66 49.784 176.256 49.784ZM173.646 57.038C174.33 57.722 175.17 58.064 176.166 58.064C177.162 58.064 178.002 57.722 178.686 57.038C179.37 56.342 179.712 55.496 179.712 54.5C179.712 53.504 179.37 52.664 178.686 51.98C178.002 51.284 177.162 50.936 176.166 50.936C175.17 50.936 174.33 51.284 173.646 51.98C172.962 52.664 172.62 53.504 172.62 54.5C172.62 55.496 172.962 56.342 173.646 57.038ZM191.695 50V59H190.507V51.818L187.357 56.93H187.213L184.063 51.818V59H182.875V50H184.243L187.285 54.932L190.327 50H191.695ZM201.593 50V59H200.405V51.152H196.337V55.166C196.337 56.666 196.049 57.698 195.473 58.262C194.909 58.826 194.129 59.072 193.133 59V57.884C193.817 57.956 194.321 57.794 194.645 57.398C194.981 57.002 195.149 56.258 195.149 55.166V50H201.593ZM208.268 49.784C209.6 49.784 210.674 50.258 211.49 51.206C212.318 52.142 212.732 53.252 212.732 54.536C212.732 54.668 212.72 54.854 212.696 55.094H204.794C204.914 56.006 205.298 56.732 205.946 57.272C206.606 57.8 207.416 58.064 208.376 58.064C209.06 58.064 209.648 57.926 210.14 57.65C210.644 57.362 211.022 56.99 211.274 56.534L212.318 57.146C211.922 57.782 211.382 58.286 210.698 58.658C210.014 59.03 209.234 59.216 208.358 59.216C206.942 59.216 205.79 58.772 204.902 57.884C204.014 56.996 203.57 55.868 203.57 54.5C203.57 53.156 204.008 52.034 204.884 51.134C205.76 50.234 206.888 49.784 208.268 49.784ZM208.268 50.936C207.332 50.936 206.546 51.218 205.91 51.782C205.286 52.334 204.914 53.054 204.794 53.942H211.508C211.388 52.994 211.022 52.256 210.41 51.728C209.798 51.2 209.084 50.936 208.268 50.936ZM220.993 50H222.181V59H220.993V55.076H215.809V59H214.621V50H215.809V53.924H220.993V50ZM231.246 50H232.254V59H231.066V52.07L225.702 59H224.694V50H225.882V56.93L231.246 50ZM238.924 49.784C240.256 49.784 241.33 50.258 242.146 51.206C242.974 52.142 243.388 53.252 243.388 54.536C243.388 54.668 243.376 54.854 243.352 55.094H235.45C235.57 56.006 235.954 56.732 236.602 57.272C237.262 57.8 238.072 58.064 239.032 58.064C239.716 58.064 240.304 57.926 240.796 57.65C241.3 57.362 241.678 56.99 241.93 56.534L242.974 57.146C242.578 57.782 242.038 58.286 241.354 58.658C240.67 59.03 239.89 59.216 239.014 59.216C237.598 59.216 236.446 58.772 235.558 57.884C234.67 56.996 234.226 55.868 234.226 54.5C234.226 53.156 234.664 52.034 235.54 51.134C236.416 50.234 237.544 49.784 238.924 49.784ZM238.924 50.936C237.988 50.936 237.202 51.218 236.566 51.782C235.942 52.334 235.57 53.054 235.45 53.942H242.164C242.044 52.994 241.678 52.256 241.066 51.728C240.454 51.2 239.74 50.936 238.924 50.936Z" fill="white"/>
<path d="M46.54 99V88.74L39.52 99H38.44V86.4H39.7V96.66L46.72 86.4H47.8V99H46.54ZM56.8664 90H58.0544V99H56.8664V95.076H51.6824V99H50.4944V90H51.6824V93.924H56.8664V90ZM68.1266 97.848H69.3866V101.412H68.1986V99H60.8546V101.412H59.6666V97.848H60.7646C61.3766 97.044 61.6826 95.91 61.6826 94.446V90H68.1266V97.848ZM62.2046 97.848H66.9386V91.152H62.8706V94.446C62.8706 95.826 62.6486 96.96 62.2046 97.848ZM77.7358 90H78.7438V99H77.5558V92.07L72.1918 99H71.1838V90H72.3718V96.93L77.7358 90ZM86.9801 94.374C87.9641 94.734 88.4561 95.436 88.4561 96.48C88.4561 97.212 88.2101 97.818 87.7181 98.298C87.2381 98.766 86.5421 99 85.6301 99H81.2561V90H85.2701C86.1461 90 86.8241 90.228 87.3041 90.684C87.7841 91.128 88.0241 91.704 88.0241 92.412C88.0241 93.312 87.6761 93.966 86.9801 94.374ZM85.2701 91.152H82.4441V93.888H85.2701C86.3141 93.888 86.8361 93.42 86.8361 92.484C86.8361 92.064 86.6981 91.74 86.4221 91.512C86.1581 91.272 85.7741 91.152 85.2701 91.152ZM85.6301 97.848C86.1581 97.848 86.5601 97.722 86.8361 97.47C87.1241 97.218 87.2681 96.864 87.2681 96.408C87.2681 95.988 87.1241 95.658 86.8361 95.418C86.5601 95.166 86.1581 95.04 85.6301 95.04H82.4441V97.848H85.6301ZM96.8081 90H97.8161V99H96.6281V92.07L91.2641 99H90.2561V90H91.4441V96.93L96.8081 90ZM107.888 97.848H109.148V101.412H107.96V99H100.616V101.412H99.4284V97.848H100.526C101.138 97.044 101.444 95.91 101.444 94.446V90H107.888V97.848ZM101.966 97.848H106.7V91.152H102.632V94.446C102.632 95.826 102.41 96.96 101.966 97.848ZM117.074 90H118.334L114.482 99.828C114.134 100.716 113.636 101.412 112.988 101.916C112.352 102.432 111.638 102.66 110.846 102.6V101.484C111.926 101.604 112.748 100.98 113.312 99.612L113.546 99.054L109.514 90H110.774L114.158 97.542L117.074 90ZM127.158 90H128.346V99H127.158V97.236C126.33 98.556 125.118 99.216 123.522 99.216C122.238 99.216 121.14 98.76 120.228 97.848C119.328 96.936 118.878 95.82 118.878 94.5C118.878 93.18 119.328 92.064 120.228 91.152C121.14 90.24 122.238 89.784 123.522 89.784C125.118 89.784 126.33 90.444 127.158 91.764V90ZM121.092 97.038C121.776 97.722 122.616 98.064 123.612 98.064C124.608 98.064 125.448 97.722 126.132 97.038C126.816 96.342 127.158 95.496 127.158 94.5C127.158 93.504 126.816 92.664 126.132 91.98C125.448 91.284 124.608 90.936 123.612 90.936C122.616 90.936 121.776 91.284 121.092 91.98C120.408 92.664 120.066 93.504 120.066 94.5C120.066 95.496 120.408 96.342 121.092 97.038ZM138.242 90V99H137.054V91.152H132.986V95.166C132.986 96.666 132.698 97.698 132.122 98.262C131.558 98.826 130.778 99.072 129.782 99V97.884C130.466 97.956 130.97 97.794 131.294 97.398C131.63 97.002 131.798 96.258 131.798 95.166V90H138.242ZM144.412 93.42C145.252 93.42 145.96 93.684 146.536 94.212C147.124 94.728 147.418 95.394 147.418 96.21C147.418 97.026 147.124 97.698 146.536 98.226C145.96 98.742 145.252 99 144.412 99H140.758V90H141.946V93.42H144.412ZM144.412 97.848C144.916 97.848 145.342 97.698 145.69 97.398C146.05 97.098 146.23 96.702 146.23 96.21C146.23 95.718 146.05 95.322 145.69 95.022C145.342 94.722 144.916 94.572 144.412 94.572H141.946V97.848H144.412ZM155.585 90H156.773V99H155.585V95.076H150.401V99H149.213V90H150.401V93.924H155.585V90ZM162.939 93.42C163.779 93.42 164.487 93.684 165.063 94.212C165.651 94.728 165.945 95.394 165.945 96.21C165.945 97.026 165.651 97.698 165.063 98.226C164.487 98.742 163.779 99 162.939 99H159.285V90H160.473V93.42H162.939ZM167.205 90H168.393V99H167.205V90ZM162.939 97.848C163.443 97.848 163.869 97.698 164.217 97.398C164.577 97.098 164.757 96.702 164.757 96.21C164.757 95.718 164.577 95.322 164.217 95.022C163.869 94.722 163.443 94.572 162.939 94.572H160.473V97.848H162.939ZM172.362 88.56V87.516H177.042V88.56H172.362ZM177.474 90H178.482V99H177.294V92.07L171.93 99H170.922V90H172.11V96.93L177.474 90ZM193.054 97.848H194.314V101.412H193.126V99H185.782V101.412H184.594V97.848H185.692C186.304 97.044 186.61 95.91 186.61 94.446V90H193.054V97.848ZM187.132 97.848H191.866V91.152H187.798V94.446C187.798 95.826 187.576 96.96 187.132 97.848ZM202.664 90H203.672V99H202.484V92.07L197.12 99H196.112V90H197.3V96.93L202.664 90ZM210.828 94.374C211.872 94.77 212.394 95.49 212.394 96.534C212.394 97.278 212.1 97.914 211.512 98.442C210.936 98.958 210.108 99.216 209.028 99.216C207.216 99.216 206.028 98.496 205.464 97.056L206.472 96.462C206.844 97.53 207.696 98.064 209.028 98.064C209.724 98.064 210.258 97.914 210.63 97.614C211.014 97.314 211.206 96.93 211.206 96.462C211.206 96.042 211.05 95.7 210.738 95.436C210.426 95.172 210.006 95.04 209.478 95.04H208.164V93.888H209.118C209.634 93.888 210.036 93.762 210.324 93.51C210.624 93.246 210.774 92.886 210.774 92.43C210.774 91.998 210.6 91.644 210.252 91.368C209.904 91.08 209.436 90.936 208.848 90.936C207.72 90.936 206.97 91.386 206.598 92.286L205.608 91.71C206.208 90.426 207.288 89.784 208.848 89.784C209.796 89.784 210.552 90.036 211.116 90.54C211.68 91.032 211.962 91.638 211.962 92.358C211.962 93.282 211.584 93.954 210.828 94.374ZM221.939 90H223.127V99H221.939V97.236C221.111 98.556 219.899 99.216 218.303 99.216C217.019 99.216 215.921 98.76 215.009 97.848C214.109 96.936 213.659 95.82 213.659 94.5C213.659 93.18 214.109 92.064 215.009 91.152C215.921 90.24 217.019 89.784 218.303 89.784C219.899 89.784 221.111 90.444 221.939 91.764V90ZM215.873 97.038C216.557 97.722 217.397 98.064 218.393 98.064C219.389 98.064 220.229 97.722 220.913 97.038C221.597 96.342 221.939 95.496 221.939 94.5C221.939 93.504 221.597 92.664 220.913 91.98C220.229 91.284 219.389 90.936 218.393 90.936C217.397 90.936 216.557 91.284 215.873 91.98C215.189 92.664 214.847 93.504 214.847 94.5C214.847 95.496 215.189 96.342 215.873 97.038ZM227.083 88.56V87.516H231.763V88.56H227.083ZM232.195 90H233.203V99H232.015V92.07L226.651 99H225.643V90H226.831V96.93L232.195 90ZM242.087 90H243.275V99H242.087V95.076H236.903V99H235.715V90H236.903V93.924H242.087V90Z" fill="white"/>
<path d="M11 12.5L7.25 14.6651L7.25 10.3349L11 12.5Z" fill="white"/>
<path d="M4.75 6.00481L16 12.5L4.75 18.9952L4.75 6.00481Z" stroke="white"/>
<path d="M11 52.5L7.25 54.6651L7.25 50.3349L11 52.5Z" fill="white"/>
<path d="M4.75 46.0048L16 52.5L4.75 58.9952L4.75 46.0048Z" stroke="white"/>
<path d="M11 92.5L7.25 94.6651L7.25 90.3349L11 92.5Z" fill="white"/>
<path d="M4.75 86.0048L16 92.5L4.75 98.9952L4.75 86.0048Z" stroke="white"/>
</svg>
